<svg width="25" height="21" viewBox="0 0 25 21" fill="none" xmlns="http://www.w3.org/2000/svg">
<path d="M24.8734 8.19237C24.7079 7.80145 24.4001 7.49843 24.0067 7.33905L23.5672 7.16102V4.8392C23.5672 3.96288 22.8543 3.24999 21.978 3.24999H13.9128L9.28714 1.37611C9.09925 1.29994 8.88538 1.39061 8.80931 1.57841C8.73318 1.7662 8.82376 1.98016 9.0116 2.05624L11.9583 3.24999H4.28797L5.04808 1.37357C5.22518 0.936415 5.72493 0.724794 6.16204 0.901893L7.65159 1.50531C7.83958 1.58153 8.0534 1.49081 8.12942 1.30302C8.20555 1.11522 8.11492 0.901307 7.92713 0.825184L6.43753 0.221766C5.62552 -0.107238 4.69695 0.285829 4.3679 1.09799L3.49617 3.24994H3.022C2.14573 3.24994 1.43284 3.96283 1.43284 4.83915V8.3434L0.117168 11.5913C-0.0422559 11.9847 -0.0388867 12.4167 0.126641 12.8076C0.292119 13.1985 0.599932 13.5016 0.993389 13.6609L1.43289 13.839V16.1608C1.43289 17.0371 2.14578 17.75 3.02205 17.75H4.58782C4.79046 17.75 4.95472 17.5857 4.95472 17.3831C4.95472 17.1805 4.79046 17.0162 4.58782 17.0162H3.02205C2.55042 17.0162 2.16668 16.6325 2.16668 16.1608V9.60321H6.98846C6.14139 10.2724 5.01126 11.43 4.53475 13.098C4.48196 13.2829 4.58567 13.4822 4.76717 13.5453C4.96365 13.6137 5.18333 13.4994 5.24041 13.2996C5.73533 11.567 7.07332 10.4257 7.82747 9.89896V17.0161H6.0555C5.85286 17.0161 5.6886 17.1804 5.6886 17.383C5.6886 17.5857 5.85286 17.7499 6.0555 17.7499H11.0873L14.7331 19.2268C14.7783 19.2452 14.8248 19.2538 14.8707 19.2538C15.0158 19.2538 15.1531 19.1672 15.2109 19.0245C15.287 18.8368 15.1965 18.6228 15.0086 18.5467L13.0418 17.7499H20.7121L19.952 19.6264C19.7749 20.0635 19.2749 20.2751 18.838 20.098L16.3721 19.0991C16.1842 19.023 15.9704 19.1136 15.8943 19.3014C15.8182 19.4892 15.9088 19.7032 16.0966 19.7792L18.5625 20.7782C18.7574 20.8571 18.9588 20.8945 19.1572 20.8945C19.7856 20.8945 20.3821 20.5192 20.6322 19.9019L21.5039 17.75H21.9781C22.8544 17.75 23.5673 17.0371 23.5673 16.1608V12.6565L24.8829 9.40868C25.0423 9.01522 25.0389 8.58329 24.8734 8.19237ZM1.26893 12.9808C1.05716 12.895 0.891484 12.7319 0.802373 12.5215C0.71331 12.3111 0.711504 12.0787 0.797295 11.8669L1.43284 10.298V13.0473L1.26893 12.9808ZM4.56292 7.50517C4.50003 7.35726 4.45486 7.12089 4.78626 6.77709C4.93885 6.61879 5.13216 6.51766 5.35535 6.55136C5.799 6.6182 6.3847 7.13099 7.00472 7.9952C7.2201 8.29545 7.40765 8.59364 7.55237 8.83773C6.14622 8.70028 4.83118 8.13641 4.56292 7.50517ZM7.82742 7.88837C7.24495 7.01351 6.37093 5.96259 5.46512 5.82577C5.01897 5.75839 4.60159 5.91127 4.25794 6.26776C3.99397 6.54154 3.5949 7.1037 3.88753 7.79218C4.06946 8.2203 4.4804 8.58324 5.01487 8.86928H2.16668V4.83915C2.16668 4.36747 2.55042 3.98378 3.02205 3.98378H7.82747V7.88837H7.82742ZM22.8334 16.1608C22.8334 16.6325 22.4496 17.0161 21.978 17.0161H8.56126V9.89896C9.31541 10.4257 10.6534 11.567 11.1483 13.2996C11.2055 13.4998 11.4249 13.6131 11.6216 13.5453C11.8032 13.4828 11.9067 13.2825 11.854 13.098C11.3775 11.43 10.2473 10.2724 9.40027 9.60321H22.8334V16.1608ZM8.83616 8.83768C8.97947 8.59598 9.16507 8.30092 9.37869 8.00258C10.0006 7.13397 10.5882 6.61859 11.0331 6.5514C11.2564 6.51757 11.4498 6.61884 11.6025 6.77714C11.9339 7.12099 11.8887 7.35736 11.8258 7.50521C11.5575 8.13642 10.2423 8.70028 8.83616 8.83768ZM22.8334 8.86933H11.3738C11.9082 8.58324 12.3192 8.2203 12.5012 7.79223C12.7938 7.10375 12.3947 6.54159 12.1307 6.26781C11.787 5.91122 11.3693 5.75848 10.9235 5.82582C10.0178 5.96264 9.14368 7.01356 8.56121 7.88842V3.98388H21.978C22.4496 3.98388 22.8333 4.36757 22.8333 4.83925V8.86933H22.8334ZM24.2028 9.13314L23.5672 10.702V7.95277L23.7312 8.01918C23.9429 8.10497 24.1086 8.2681 24.1976 8.47851C24.2867 8.68886 24.2886 8.92138 24.2028 9.13314Z" fill="#2E51DB"/>
</svg>
