<svg width="16" height="22" viewBox="0 0 16 22" fill="none" xmlns="http://www.w3.org/2000/svg">
<path d="M8.00077 0C3.60743 0 0.0332031 3.57423 0.0332031 7.96752C0.0332031 13.4197 7.16339 21.4239 7.46697 21.762C7.75211 22.0796 8.24994 22.079 8.53457 21.762C8.83814 21.4239 15.9683 13.4197 15.9683 7.96752C15.9682 3.57423 12.3941 0 8.00077 0ZM8.00077 11.9762C5.79037 11.9762 3.99213 10.1779 3.99213 7.96752C3.99213 5.75712 5.79041 3.95888 8.00077 3.95888C10.2111 3.95888 12.0094 5.75717 12.0094 7.96757C12.0094 10.178 10.2111 11.9762 8.00077 11.9762Z" fill="#B0B0B0"/>
</svg>
