<svg width="25" height="23" viewBox="0 0 25 23" fill="none" xmlns="http://www.w3.org/2000/svg">
<path d="M24.1667 5.25H7.08333C6.85321 5.25 6.66667 5.43655 6.66667 5.66667C6.66667 5.89679 6.85321 6.08333 7.08333 6.08333H9.60208C7.75295 7.25997 6.64288 9.30838 6.66667 11.5C6.64288 13.6916 7.75295 15.74 9.60208 16.9167H0.833333V6.08333H5C5.23012 6.08333 5.41667 5.89679 5.41667 5.66667C5.41667 5.43655 5.23012 5.25 5 5.25H0.833333C0.373096 5.25 0 5.6231 0 6.08333V16.9167C0 17.3769 0.373096 17.75 0.833333 17.75H24.1667C24.6269 17.75 25 17.3769 25 16.9167V6.08333C25 5.6231 24.6269 5.25 24.1667 5.25ZM7.5 11.5C7.5 8.51333 9.74292 6.08333 12.5 6.08333C15.2571 6.08333 17.5 8.51333 17.5 11.5C17.5 14.4867 15.2571 16.9167 12.5 16.9167C9.74292 16.9167 7.5 14.4867 7.5 11.5ZM24.1667 16.9167H15.3979C17.247 15.74 18.3571 13.6916 18.3333 11.5C18.3571 9.30838 17.247 7.25997 15.3979 6.08333H24.1667V16.9167Z" fill="#2E51DB"/>
<path d="M21.9732 0.754126C21.7759 0.655409 21.5476 0.638927 21.3382 0.708293L12.3632 3.71621C12.1445 3.78939 12.0266 4.02593 12.0998 4.24454C12.173 4.46316 12.4095 4.58105 12.6282 4.50788L21.6007 1.49996L22.5215 4.24538C22.5688 4.38679 22.6879 4.49225 22.834 4.52203C22.9801 4.55181 23.131 4.50138 23.2298 4.38974C23.3287 4.2781 23.3604 4.12221 23.3132 3.98079L22.3919 1.23704C22.3233 1.02613 22.1722 0.851945 21.9732 0.754126Z" fill="#2E51DB"/>
<path d="M12.3727 18.4926L3.40015 21.5001L2.47932 18.7547C2.40626 18.536 2.16981 18.4181 1.95119 18.4911C1.73258 18.5642 1.61459 18.8006 1.68765 19.0192L2.60724 21.7622C2.67539 21.9727 2.82562 22.1468 3.0239 22.2451C3.13926 22.3025 3.26631 22.3324 3.39515 22.3326C3.48472 22.3327 3.57374 22.3186 3.6589 22.2909L12.6339 19.283C12.8525 19.2098 12.9704 18.9733 12.8972 18.7547C12.8241 18.536 12.5875 18.4181 12.3689 18.4913L12.3727 18.4926Z" fill="#2E51DB"/>
<path d="M13.7493 10.0417C13.7493 10.2718 13.9359 10.4583 14.166 10.4583C14.3961 10.4583 14.5827 10.2718 14.5827 10.0417C14.5424 9.10767 13.8417 8.33526 12.916 8.20458V8.16667C12.916 7.93655 12.7295 7.75 12.4993 7.75C12.2692 7.75 12.0827 7.93655 12.0827 8.16667V8.20458C11.157 8.33526 10.4562 9.10767 10.416 10.0417C10.4562 10.9757 11.157 11.7481 12.0827 11.8788V13.9358C11.619 13.8307 11.2798 13.4328 11.2493 12.9583C11.2493 12.7282 11.0628 12.5417 10.8327 12.5417C10.6026 12.5417 10.416 12.7282 10.416 12.9583C10.4562 13.8923 11.157 14.6648 12.0827 14.7954V14.8333C12.0827 15.0635 12.2692 15.25 12.4993 15.25C12.7295 15.25 12.916 15.0635 12.916 14.8333V14.7954C13.8417 14.6648 14.5424 13.8923 14.5827 12.9583C14.5424 12.0243 13.8417 11.2519 12.916 11.1213V9.06417C13.3797 9.16936 13.7188 9.56718 13.7493 10.0417ZM11.2493 10.0417C11.2798 9.56718 11.619 9.16936 12.0827 9.06417V11.0192C11.619 10.914 11.2798 10.5162 11.2493 10.0417ZM13.7493 12.9583C13.7188 13.4328 13.3797 13.8307 12.916 13.9358V11.9808C13.3797 12.086 13.7188 12.4839 13.7493 12.9583Z" fill="#2E51DB"/>
<path d="M21.2506 16.0833H22.9173C23.1474 16.0833 23.334 15.8967 23.334 15.6666V13.9999C23.334 13.7698 23.1474 13.5833 22.9173 13.5833C22.6872 13.5833 22.5006 13.7698 22.5006 13.9999V15.2499H21.2506C21.0205 15.2499 20.834 15.4365 20.834 15.6666C20.834 15.8967 21.0205 16.0833 21.2506 16.0833Z" fill="#2E51DB"/>
<path d="M2.08464 13.5833C1.85452 13.5833 1.66797 13.7698 1.66797 13.9999V15.6666C1.66797 15.8967 1.85452 16.0833 2.08464 16.0833H3.7513C3.98142 16.0833 4.16797 15.8967 4.16797 15.6666C4.16797 15.4365 3.98142 15.2499 3.7513 15.2499H2.5013V13.9999C2.5013 13.7698 2.31475 13.5833 2.08464 13.5833Z" fill="#2E51DB"/>
<path d="M3.7513 6.91675H2.08464C1.85452 6.91675 1.66797 7.1033 1.66797 7.33341V9.00008C1.66797 9.2302 1.85452 9.41675 2.08464 9.41675C2.31475 9.41675 2.5013 9.2302 2.5013 9.00008V7.75008H3.7513C3.98142 7.75008 4.16797 7.56353 4.16797 7.33341C4.16797 7.1033 3.98142 6.91675 3.7513 6.91675Z" fill="#2E51DB"/>
<path d="M21.2506 7.75008H22.5006V9.00008C22.5006 9.2302 22.6872 9.41675 22.9173 9.41675C23.1474 9.41675 23.334 9.2302 23.334 9.00008V7.33341C23.334 7.1033 23.1474 6.91675 22.9173 6.91675H21.2506C21.0205 6.91675 20.834 7.1033 20.834 7.33341C20.834 7.56353 21.0205 7.75008 21.2506 7.75008Z" fill="#2E51DB"/>
</svg>
