<svg width="20" height="19" viewBox="0 0 20 19" fill="none" xmlns="http://www.w3.org/2000/svg">
<path fill-rule="evenodd" clip-rule="evenodd" d="M1.66602 9.49992C1.66602 5.80971 1.66602 3.96461 2.79169 2.80148C2.82203 2.77013 2.85289 2.73927 2.88424 2.70893C4.04737 1.58325 5.89248 1.58325 9.58268 1.58325H10.416C14.1062 1.58325 15.9513 1.58325 17.1145 2.70893C17.1458 2.73927 17.1767 2.77013 17.207 2.80148C18.3327 3.96461 18.3327 5.80971 18.3327 9.49992C18.3327 13.1901 18.3327 15.0352 17.207 16.1984C17.1767 16.2297 17.1458 16.2606 17.1145 16.2909C15.9513 17.4166 14.1062 17.4166 10.416 17.4166H9.58269C5.89248 17.4166 4.04737 17.4166 2.88424 16.2909C2.85289 16.2606 2.82203 16.2297 2.79169 16.1984C1.66602 15.0352 1.66602 13.1901 1.66602 9.49992ZM6.36648 12.8401C7.41417 12.0763 8.69118 11.6666 9.99935 11.6666C11.3075 11.6666 12.5845 12.0763 13.6322 12.8401C14.6807 13.6044 15.4438 14.6832 15.7914 15.9157C15.9414 16.4473 15.632 16.9997 15.1004 17.1496C14.5689 17.2996 14.0165 16.9902 13.8665 16.4587C13.6444 15.6711 13.1521 14.965 12.4541 14.4562C11.7553 13.9469 10.8925 13.6666 9.99935 13.6666C9.10618 13.6666 8.24336 13.9469 7.54461 14.4562C6.84664 14.965 6.35429 15.6711 6.13217 16.4587C5.98225 16.9902 5.42981 17.2996 4.89826 17.1496C4.36671 16.9997 4.05735 16.4473 4.20727 15.9157C4.5549 14.6832 5.31801 13.6044 6.36648 12.8401ZM8.49935 7.12492C8.49935 6.41324 9.12197 5.74992 9.99935 5.74992C10.8767 5.74992 11.4993 6.41324 11.4993 7.12492C11.4993 7.8366 10.8767 8.49992 9.99935 8.49992C9.12197 8.49992 8.49935 7.8366 8.49935 7.12492ZM9.99935 3.74992C8.11531 3.74992 6.49935 5.21324 6.49935 7.12492C6.49935 9.03659 8.11531 10.4999 9.99935 10.4999C11.8834 10.4999 13.4993 9.03659 13.4993 7.12492C13.4993 5.21324 11.8834 3.74992 9.99935 3.74992Z" fill="#3748E5"/>
<rect x="2.16602" y="2.08325" width="15.6667" height="14.8333" rx="3.5" stroke="#3748E5"/>
</svg>
